<svg width="40" height="40" viewBox="0 0 40 40" fill="none" xmlns="http://www.w3.org/2000/svg">
<path d="M26.6668 36.6666V21.6666C26.6668 19.3096 26.6668 18.1311 25.9347 17.3988C25.2023 16.6666 24.0238 16.6666 21.6668 16.6666H18.3335C15.9765 16.6666 14.798 16.6666 14.0657 17.3988C13.3335 18.1311 13.3335 19.3096 13.3335 21.6666V36.6666" stroke="#00356B" stroke-width="2" stroke-linecap="round"/>
<path opacity="0.5" d="M13.3335 36.6666C13.3335 34.3096 13.3335 33.1311 12.6013 32.3988C11.869 31.6666 10.6905 31.6666 8.3335 31.6666C5.97648 31.6666 4.79796 31.6666 4.06573 32.3988C3.3335 33.1311 3.3335 34.3096 3.3335 36.6666" stroke="#00356B" stroke-width="2" stroke-linecap="round"/>
<path opacity="0.5" d="M36.6665 36.6666V31.6666C36.6665 29.3096 36.6665 28.1311 35.9343 27.3988C35.202 26.6666 34.0235 26.6666 31.6665 26.6666C29.3095 26.6666 28.131 26.6666 27.3987 27.3988C26.6665 28.1311 26.6665 29.3096 26.6665 31.6666V36.6666" stroke="#00356B" stroke-width="2" stroke-linecap="round"/>
<path d="M18.5765 5.03756C19.2098 3.90144 19.5265 3.33337 20 3.33337C20.4735 3.33337 20.7902 3.90144 21.4235 5.03756L21.5873 5.33149C21.7672 5.65434 21.8572 5.81577 21.9975 5.92227C22.1378 6.02879 22.3125 6.06832 22.662 6.14739L22.9802 6.21939C24.21 6.49766 24.825 6.63679 24.9713 7.10724C25.1177 7.57769 24.6983 8.06791 23.86 9.04834L23.643 9.30199C23.4048 9.58059 23.2857 9.71989 23.232 9.89222C23.1785 10.0646 23.1965 10.2504 23.2325 10.6222L23.2653 10.9606C23.392 12.2687 23.4555 12.9227 23.0725 13.2135C22.6893 13.5042 22.1137 13.2391 20.9622 12.709L20.6643 12.5718C20.337 12.4211 20.1735 12.3458 20 12.3458C19.8265 12.3458 19.663 12.4211 19.3357 12.5718L19.0378 12.709C17.8863 13.2391 17.3107 13.5042 16.9275 13.2135C16.5446 12.9227 16.6079 12.2687 16.7347 10.9606L16.7675 10.6222C16.8035 10.2504 16.8215 10.0646 16.768 9.89222C16.7143 9.71989 16.5952 9.58059 16.357 9.30199L16.14 9.04834C15.3016 8.06791 14.8824 7.57769 15.0287 7.10724C15.175 6.63679 15.7899 6.49766 17.0198 6.21939L17.338 6.14739C17.6875 6.06832 17.8622 6.02879 18.0025 5.92227C18.1428 5.81577 18.2328 5.65434 18.4127 5.33149L18.5765 5.03756Z" stroke="#00356B" stroke-width="2"/>
</svg>
