<svg width="40" height="40" viewBox="0 0 40 40" fill="none" xmlns="http://www.w3.org/2000/svg">
<path d="M36.6668 20C36.6668 29.2047 29.2048 36.6667 20.0002 36.6667C10.7954 36.6667 3.3335 29.2047 3.3335 20C3.3335 10.7953 10.7954 3.33337 20.0002 3.33337C29.2048 3.33337 36.6668 10.7953 36.6668 20Z" stroke="#00356B" stroke-width="2"/>
<path opacity="0.5" d="M31.6665 31.6666L29.1665 29.1666" stroke="#00356B" stroke-width="2" stroke-linecap="round"/>
<path opacity="0.5" d="M31.6665 8.33337L29.1665 10.8334" stroke="#00356B" stroke-width="2" stroke-linecap="round"/>
<path opacity="0.5" d="M8.3335 31.6666L10.8335 29.1666" stroke="#00356B" stroke-width="2" stroke-linecap="round"/>
<path opacity="0.5" d="M8.3335 8.33337L10.8335 10.8334" stroke="#00356B" stroke-width="2" stroke-linecap="round"/>
<path opacity="0.5" d="M3.3335 20H6.66683" stroke="#00356B" stroke-width="2" stroke-linecap="round"/>
<path opacity="0.5" d="M33.333 20H36.6663" stroke="#00356B" stroke-width="2" stroke-linecap="round"/>
<path opacity="0.5" d="M20 6.66707V3.33374" stroke="#00356B" stroke-width="2" stroke-linecap="round"/>
<path d="M22.9636 23.9399C24.9162 21.9873 24.9162 18.8214 22.9636 16.8689C21.0109 14.9162 17.8451 14.9162 15.8925 16.8689C15.1497 17.6116 14.631 19.1534 14.2733 20.7791C13.7385 23.2099 13.4711 24.4254 14.4391 25.3934C15.4071 26.3614 16.6225 26.0939 19.0534 25.5591C20.6789 25.2014 22.2207 24.6826 22.9636 23.9399Z" stroke="#00356B" stroke-width="2"/>
</svg>
