<svg width="40" height="40" viewBox="0 0 40 40" fill="none" xmlns="http://www.w3.org/2000/svg">
<path opacity="0.5" d="M36.6668 26.2881C34.0207 25.6646 32.6593 24.1327 31.5333 22.4291C30.8277 21.3614 29.276 21.4264 28.5093 22.451C26.757 24.7937 24.1408 26.6674 20.0002 26.6674C15.8226 26.6674 13.1969 24.2834 11.4443 22.0399C10.7122 21.1027 9.31045 21.1152 8.66963 22.117C7.50146 23.9434 6.1402 25.6267 3.3335 26.2881" stroke="#00356B" stroke-width="2" stroke-linecap="round" stroke-linejoin="round"/>
<path opacity="0.5" d="M36.6668 34.6213C34.0207 33.9978 32.6593 32.466 31.5333 30.7623C30.8277 29.6946 29.276 29.7596 28.5093 30.7843C26.757 33.127 24.1408 35.0006 20.0002 35.0006C15.8226 35.0006 13.1969 32.6166 11.4443 30.3731C10.7122 29.436 9.31045 29.4485 8.66963 30.4503C7.50146 32.2766 6.1402 33.96 3.3335 34.6213" stroke="#00356B" stroke-width="2" stroke-linecap="round" stroke-linejoin="round"/>
<path d="M6.6665 19.1667L12.4614 15.6897C13.7887 14.8933 14.0807 13.0943 13.0733 11.919L11.4271 9.99843C10.6217 9.05883 10.6755 7.65758 11.5506 6.78253C12.5166 5.81657 14.0972 5.86592 15.0011 6.89025L25.8332 19.1667" stroke="#00356B" stroke-width="2" stroke-linecap="round" stroke-linejoin="round"/>
<path d="M28.3332 13.3333C30.6343 13.3333 32.4998 11.4678 32.4998 9.16667C32.4998 6.86548 30.6343 5 28.3332 5C26.032 5 24.1665 6.86548 24.1665 9.16667C24.1665 11.4678 26.032 13.3333 28.3332 13.3333Z" stroke="#00356B" stroke-width="2" stroke-linecap="round" stroke-linejoin="round"/>
</svg>
