<svg width="40" height="40" viewBox="0 0 40 40" fill="none" xmlns="http://www.w3.org/2000/svg">
<path opacity="0.5" d="M13.8647 20.3304L20.3315 13.8638M25.5048 19.0371L19.0382 25.5039" stroke="#00356B" stroke-width="2"/>
<path d="M5.71945 26.0321C4.21245 24.5251 3.45896 23.7716 3.3515 22.8515C3.3275 22.6461 3.3275 22.4386 3.3515 22.2331C3.45896 21.3131 4.21245 20.5596 5.71943 19.0526C7.22641 17.5456 7.97991 16.7921 8.90006 16.6846C9.10546 16.6606 9.31296 16.6606 9.51836 16.6846C10.4385 16.7921 11.192 17.5456 12.699 19.0526L20.9475 27.3011C22.4545 28.8081 23.208 29.5616 23.3155 30.4818C23.3395 30.6871 23.3395 30.8946 23.3155 31.1001C23.208 32.0203 22.4545 32.7736 20.9475 34.2806C19.4405 35.7876 18.6872 36.5411 17.767 36.6486C17.5615 36.6726 17.354 36.6726 17.1487 36.6486C16.2285 36.5411 15.475 35.7876 13.968 34.2806L5.71945 26.0321Z" stroke="#00356B" stroke-width="2"/>
<path d="M19.0525 12.6989C17.5455 11.1919 16.792 10.4384 16.6845 9.51824C16.6605 9.31284 16.6605 9.10534 16.6845 8.89994C16.792 7.97979 17.5455 7.22631 19.0525 5.71931C20.5595 4.21232 21.313 3.45884 22.233 3.35137C22.4385 3.32737 22.646 3.32737 22.8513 3.35137C23.7715 3.45884 24.525 4.21232 26.032 5.71931L34.2805 13.9679C35.7875 15.4749 36.541 16.2284 36.6485 17.1485C36.6725 17.3539 36.6725 17.5614 36.6485 17.7669C36.541 18.687 35.7875 19.4404 34.2805 20.9474C32.7735 22.4544 32.0202 23.2079 31.1 23.3154C30.8945 23.3394 30.687 23.3394 30.4817 23.3154C29.5615 23.2079 28.808 22.4544 27.301 20.9474L19.0525 12.6989Z" stroke="#00356B" stroke-width="2"/>
<path opacity="0.5" d="M30.0312 4.16345L35.2046 9.3368" stroke="#00356B" stroke-width="2" stroke-linecap="round" stroke-linejoin="round"/>
<path opacity="0.5" d="M4.1626 30.031L9.33595 35.2043" stroke="#00356B" stroke-width="2" stroke-linecap="round" stroke-linejoin="round"/>
</svg>
