<svg width="40" height="40" viewBox="0 0 40 40" fill="none" xmlns="http://www.w3.org/2000/svg">
<path d="M19.3007 7.96011C20.4586 5.00864 21.0376 3.53289 22.2482 3.35097C23.4591 3.16906 24.4997 4.40142 26.5812 6.86616L27.1196 7.50381C27.7111 8.20421 28.0069 8.55442 28.4089 8.75439C28.8111 8.95436 29.2741 8.98144 30.1999 9.03562L31.0429 9.08496C34.3012 9.27566 35.9304 9.37101 36.4957 10.4362C37.0611 11.5014 36.1882 12.8309 34.4426 15.4901L33.9909 16.178C33.4947 16.9337 33.2467 17.3115 33.1797 17.7429C33.1127 18.1742 33.2344 18.6104 33.4776 19.4825L33.6991 20.2767C34.5549 23.346 34.9827 24.8807 34.1214 25.7209C33.2601 26.5612 31.6799 26.1505 28.5196 25.3292L27.7019 25.1167C26.8039 24.8834 26.3549 24.7667 25.9114 24.8332C25.4677 24.8999 25.0801 25.1424 24.3044 25.6272L23.5982 26.0687C20.8689 27.7749 19.5042 28.628 18.4066 28.0822C17.3089 27.5362 17.2051 25.9529 16.9976 22.7862L16.9439 21.9669C16.8851 21.067 16.8556 20.617 16.6484 20.2269C16.4413 19.8367 16.08 19.5504 15.3575 18.9779L14.6997 18.4565C12.157 16.4418 10.8856 15.4344 11.0686 14.2568C11.2515 13.0792 12.7675 12.5112 15.7996 11.3754L16.5841 11.0815C17.4457 10.7587 17.8766 10.5974 18.1921 10.2896C18.5076 9.98176 18.6721 9.56241 19.0011 8.72369L19.3007 7.96011Z" stroke="#00356B" stroke-width="2" stroke-linecap="round"/>
<path opacity="0.5" d="M10.9923 14.2513C5.80337 17.8095 1.83063 24.6152 3.88558 36.6664C5.70463 31.6429 11.1878 27.6194 17.313 25.6829" stroke="#00356B" stroke-width="2" stroke-linecap="round" stroke-linejoin="round"/>
</svg>
