<svg width="212" height="38" viewBox="0 0 212 38" fill="none" xmlns="http://www.w3.org/2000/svg">
<g clip-path="url(#clip0_160_112)">
<path d="M212 50.6667V7.05525C201.292 7.65947 190.585 8.26369 178.286 6.18302C165.987 4.10234 152.098 -0.663229 138.536 0.0774193C124.975 0.818068 111.742 7.06494 102.025 8.50896C92.3083 9.95298 86.108 6.59416 74.9361 7.05525C63.7642 7.51634 47.6207 11.7973 34.3028 12.434C20.9848 13.0706 10.4924 10.0629 0 7.05525V50.6667H212Z" fill="#0297DF" fill-opacity="0.05"/>
<path d="M212 50.6667V26.3896C201.571 22.6174 191.143 18.8452 179.464 19.1211C167.785 19.3969 154.856 23.7208 143.689 26.3896C132.522 29.0585 123.117 30.0724 110.858 27.8434C98.5996 25.6143 83.4871 20.1424 69.4889 20.5748C55.4907 21.0072 42.6069 27.3439 31.2111 29.2971C19.8154 31.2503 9.90768 28.82 0 26.3896V50.6667H212Z" fill="#0297DF" fill-opacity="0.05"/>
</g>
<defs>
<clipPath id="clip0_160_112">
<rect width="212" height="38" fill="white" transform="matrix(-1 0 0 1 212 0)"/>
</clipPath>
</defs>
</svg>
