<svg width="150" height="53" viewBox="0 0 150 53" fill="none" xmlns="http://www.w3.org/2000/svg">
<path d="M3.41145 50.8493C3.54935 51.2036 3.70847 51.2693 3.85486 51.2693C3.98851 51.2693 4.19643 51.2396 4.31311 51.176C4.19431 51.0911 4.11581 50.9384 4.00761 50.6626L2.73892 47.4506C2.61163 47.1344 2.47797 46.8035 2.33371 46.5234C2.06215 46.5234 1.79483 46.5574 1.693 46.5828C1.59965 46.952 1.48508 47.2893 1.37689 47.5503L0.0742539 50.8514C0.0190936 50.9999 0 51.0933 0 51.1569C0 51.2418 0.0594028 51.2715 0.133657 51.2715C0.241856 51.2715 0.415824 51.2418 0.562211 51.1781C0.562211 51.0699 0.60252 50.9066 0.695868 50.6647L1.00137 49.8649H3.01897L3.40933 50.8514L3.41145 50.8493ZM2.11306 47.5481L2.87258 49.4872H1.14988L1.9985 47.266C2.03881 47.3551 2.07275 47.4484 2.11306 47.5481Z" fill="#235479"/>
<path d="M8.94873 50.845C9.23513 51.2056 9.44729 51.2735 9.63399 51.2735C9.75704 51.2735 9.9607 51.2544 10.0689 51.1802C9.91615 51.0911 9.76764 50.9574 9.4876 50.6519L7.75429 48.7765L9.03783 47.4187C9.32 47.1132 9.5661 46.7928 9.76764 46.5149C9.50669 46.5149 9.28393 46.5297 9.14179 46.5488C8.77688 46.988 8.59867 47.2044 8.31226 47.512L7.14753 48.7319V47.2808C7.14753 47.0347 7.12207 46.7674 7.06903 46.5149C6.80808 46.5149 6.57047 46.5488 6.45166 46.5785C6.50682 46.9625 6.52167 47.2002 6.52167 47.5354V50.8471C6.52167 51.2014 6.64048 51.2672 6.78262 51.2672C6.92477 51.2672 7.06903 51.2523 7.21117 51.1823C7.16238 51.1038 7.14753 50.9298 7.14753 50.6583V48.8974L8.94873 50.8429V50.845Z" fill="#235479"/>
<path d="M15.4574 50.8493C15.5995 51.2036 15.7544 51.2693 15.9008 51.2693C16.0344 51.2693 16.2423 51.2396 16.3654 51.176C16.2423 51.0911 16.1638 50.9384 16.0535 50.6626L14.7848 47.4506C14.6575 47.1344 14.5239 46.8035 14.3796 46.5234C14.108 46.5234 13.8471 46.5574 13.7389 46.5828C13.6455 46.952 13.531 47.2893 13.4228 47.5503L12.1202 50.8514C12.065 50.9999 12.0459 51.0933 12.0459 51.1569C12.0459 51.2418 12.1053 51.2715 12.1796 51.2715C12.2878 51.2715 12.466 51.2418 12.6081 51.1781C12.6081 51.0699 12.6527 50.9066 12.746 50.6647L13.0473 49.8649H15.0649L15.4552 50.8514L15.4574 50.8493ZM14.1653 47.5481L14.9206 49.4872H13.1979L14.0465 47.266C14.0911 47.3551 14.1208 47.4484 14.1653 47.5481Z" fill="#235479"/>
<path d="M18.2964 52.0246C18.2964 52.3789 18.4003 52.4447 18.5191 52.4447C18.6273 52.4447 18.795 52.415 18.9244 52.3514C18.8544 52.2665 18.8459 52.1095 18.8459 51.8379V51.2503C18.9986 51.2397 19.1514 51.2397 19.3253 51.2397H22.5883V52.0246C22.5883 52.3789 22.7071 52.4447 22.8259 52.4447C22.9447 52.4447 23.1123 52.415 23.2502 52.3514C23.1569 52.2665 23.142 52.1095 23.142 51.8379V51.0827C23.142 50.9978 23.1123 50.8811 23.0487 50.792C22.9702 50.862 22.8068 50.8663 22.5395 50.8663H22.5055C22.4949 50.7963 22.4949 50.7284 22.4949 50.6393V47.4718C22.4949 47.1557 22.4843 46.8247 22.4504 46.5447H19.9533C19.686 46.5447 19.4144 46.5595 19.302 46.585C19.3572 46.969 19.372 47.2172 19.372 47.5524V48.5983C19.372 49.8076 19.1599 50.6011 18.7801 50.8832C18.6125 50.8875 18.4491 50.9023 18.3006 50.9172V52.0268L18.2964 52.0246ZM19.9639 48.4562V47.4697C19.9639 47.283 19.9533 47.1005 19.9448 46.9159H21.8394C21.8542 47.1387 21.8648 47.3254 21.8648 47.5482V50.8642H19.3656C19.7751 50.3953 19.9618 49.5361 19.9618 48.4562H19.9639Z" fill="#235479"/>
<path d="M28.0382 49.0141C28.3925 49.0141 28.4519 48.9441 28.4519 48.8571C28.4519 48.7828 28.4328 48.6704 28.3586 48.5898C28.2801 48.6301 28.1167 48.6386 27.8494 48.6386H26.4237C26.324 48.6386 26.2264 48.6386 26.1267 48.6428V47.4675C26.1267 47.2808 26.1225 47.0983 26.1076 46.9244C26.2264 46.9138 26.3389 46.9138 26.4619 46.9138H28.2079C28.558 46.9138 28.6174 46.8501 28.6174 46.7568C28.6174 46.6825 28.5983 46.5701 28.5283 46.481C28.4498 46.5361 28.2822 46.5404 28.0149 46.5404H26.3622C26.0461 46.5404 25.7109 46.5552 25.4287 46.5892C25.4839 46.9647 25.4987 47.2256 25.4987 47.5608V50.9129C25.4987 51.0508 25.5242 51.1993 25.5581 51.2884C25.9379 51.2481 26.1903 51.2396 26.5256 51.2396H28.2673C28.6216 51.2396 28.6874 51.1653 28.6874 51.0826C28.6874 50.9999 28.6683 50.8811 28.5941 50.7919C28.5092 50.862 28.3522 50.8662 28.0806 50.8662H26.4216C26.3219 50.8662 26.2285 50.8662 26.1246 50.8704V49.0205C26.2519 49.0162 26.3813 49.0162 26.5234 49.0162H28.034L28.0382 49.0141Z" fill="#235479"/>
<path d="M35.6864 50.8493C35.7352 51.2036 35.8731 51.2693 36.0173 51.2693C36.151 51.2693 36.3589 51.2396 36.4904 51.176C36.3865 51.0911 36.3525 50.9787 36.3037 50.6626L35.854 47.4506C35.8094 47.1599 35.7543 46.8544 35.6715 46.5234H35.6312C35.3787 46.5234 35.1581 46.534 35.0096 46.5531C34.9205 46.9329 34.8462 47.1896 34.7189 47.546L33.6582 50.5374L32.4977 47.2893C32.4086 47.0432 32.2855 46.7717 32.137 46.5234C31.84 46.5234 31.5981 46.5574 31.4751 46.5934C31.4709 46.9477 31.4454 47.2342 31.4114 47.5503C31.4114 47.5503 30.9277 50.8726 30.9277 51.019C30.9277 51.2206 31.0168 51.2715 31.1208 51.2715C31.2248 51.2715 31.3966 51.2418 31.5451 51.1781C31.4899 51.1336 31.4666 51.0508 31.4666 50.966C31.4666 50.9023 31.4709 50.8662 31.4963 50.6647L31.9206 47.58L33.149 50.8514C33.2763 51.1972 33.3951 51.2715 33.5542 51.2715C33.7027 51.2715 33.8258 51.2566 33.9488 51.1866C33.9488 51.1081 34.004 50.915 34.0867 50.6626L35.2175 47.5778L35.6864 50.8493Z" fill="#235479"/>
<path d="M41.8559 50.8493C41.8559 51.2036 41.9747 51.2693 42.1232 51.2693C42.2463 51.2693 42.4542 51.2396 42.6027 51.176C42.5094 51.0911 42.4881 50.9341 42.4881 50.6626V47.4506C42.4881 47.1344 42.4733 46.8035 42.4393 46.5234C42.1869 46.5234 41.9259 46.5574 41.8071 46.5828L39.4586 50.5162V47.4506C39.4586 47.1344 39.448 46.8035 39.414 46.5234C39.1467 46.5234 38.8751 46.5574 38.7627 46.5828C38.8179 46.9668 38.8327 47.2151 38.8327 47.5503V50.8514C38.8327 51.2057 38.9473 51.2715 39.0852 51.2715C39.1997 51.2715 39.397 51.2418 39.5349 51.1781L41.8602 47.3084V50.8514L41.8559 50.8493Z" fill="#235479"/>
<path d="M47.4336 50.8493C47.4336 51.2036 47.5566 51.2694 47.6945 51.2694C47.8218 51.2694 48.0297 51.2397 48.174 51.176C48.0806 51.0912 48.0658 50.9342 48.0658 50.6626V47.4506C48.0658 47.1345 48.0509 46.7993 48.017 46.5171C47.6415 46.5362 47.3911 46.5425 47.0538 46.5425H46.6698C45.6472 46.5425 44.9577 47.1048 44.9577 47.9237C44.9577 48.6047 45.4414 49.0927 46.1861 49.2221L45.2484 50.6541C45.0808 50.9151 44.9471 51.0933 44.8198 51.1781C44.9047 51.2524 45.0871 51.2715 45.1996 51.2715C45.3481 51.2715 45.5114 51.2078 45.7236 50.8472L46.761 49.2475H47.4378V50.8514L47.4336 50.8493ZM46.5998 46.9159H47.4102C47.4293 47.1323 47.4357 47.3212 47.4357 47.5482V48.8699H46.6168C46.0058 48.8699 45.6048 48.471 45.6048 47.8919C45.6048 47.3127 46.0036 46.9138 46.6019 46.9138L46.5998 46.9159Z" fill="#235479"/>
<path d="M57.0676 47.6966C57.0676 47.0113 56.5351 46.5425 55.7459 46.5425H54.5366C54.2693 46.5425 53.9977 46.5764 53.8853 46.6019C53.9404 46.9859 53.9553 47.2341 53.9553 47.5693V50.915C53.9553 51.0529 53.9807 51.2014 54.0147 51.2905C54.3944 51.2502 54.6469 51.2417 54.9821 51.2417H55.7819C56.6709 51.2417 57.2819 50.7177 57.2819 49.9497C57.2819 49.3726 56.9276 48.9271 56.3696 48.7659C56.7981 48.5728 57.0697 48.1973 57.0697 47.7008L57.0676 47.6966ZM54.5832 50.6625V48.9801H55.6483C56.2105 48.9801 56.6008 49.3854 56.6008 49.937C56.6008 50.4886 56.2253 50.8641 55.6674 50.8641H54.8718C54.7721 50.8641 54.6745 50.8641 54.5811 50.8683C54.5705 50.8089 54.5811 50.7453 54.5811 50.6604L54.5832 50.6625ZM55.5464 48.6089H54.5832V47.4696C54.5832 47.2871 54.5726 47.1005 54.5684 46.9159H55.5252C56.0386 46.9159 56.3844 47.2659 56.3844 47.7687C56.3844 48.2715 56.0492 48.6068 55.5464 48.6068V48.6089Z" fill="#235479"/>
<path d="M59.5137 48.9443C59.5137 50.3254 60.3665 51.2737 61.6204 51.2737C62.9379 51.2737 63.831 50.2808 63.831 48.8361C63.831 47.3913 62.9782 46.5066 61.7137 46.5066C60.4493 46.5066 59.5137 47.5037 59.5137 48.9443ZM60.1904 48.8806C60.1904 47.6968 60.7824 46.8927 61.6564 46.8927C62.5305 46.8927 63.1521 47.7116 63.1521 48.9061C63.1521 50.1005 62.5645 50.894 61.6819 50.894C60.7993 50.894 60.1904 50.075 60.1904 48.8806Z" fill="#235479"/>
<path d="M65.8315 52.0246C65.8315 52.3789 65.9313 52.4447 66.0543 52.4447C66.1625 52.4447 66.3301 52.415 66.4532 52.3514C66.3895 52.2665 66.3747 52.1095 66.3747 51.8379V51.2503C66.5274 51.2397 66.6865 51.2397 66.8584 51.2397H70.1213V52.0246C70.1213 52.3789 70.2359 52.4447 70.3589 52.4447C70.4735 52.4447 70.6453 52.415 70.779 52.3514C70.6857 52.2665 70.6708 52.1095 70.6708 51.8379V51.0827C70.6708 50.9978 70.6453 50.8811 70.5775 50.792C70.499 50.862 70.3356 50.8663 70.0683 50.8663H70.0343C70.0301 50.7963 70.0301 50.7284 70.0301 50.6393V47.4718C70.0301 47.1557 70.0152 46.8247 69.9813 46.5447H67.4842C67.2169 46.5447 66.9517 46.5595 66.8372 46.585C66.886 46.969 66.9008 47.2172 66.9008 47.5524V48.5983C66.9008 49.8076 66.6929 50.6011 66.3089 50.8832C66.1413 50.8875 65.9822 50.9023 65.8358 50.9172V52.0268L65.8315 52.0246ZM67.4948 48.4562V47.4697C67.4948 47.283 67.4906 47.1005 67.4757 46.9159H69.3767C69.3915 47.1387 69.3957 47.3254 69.3957 47.5482V50.8642H66.8987C67.3081 50.3953 67.4948 49.5361 67.4948 48.4562Z" fill="#235479"/>
<path d="M76.0277 50.8493C76.0277 51.2036 76.1465 51.2693 76.2887 51.2693C76.416 51.2693 76.6239 51.2396 76.7724 51.176C76.6684 51.0911 76.6578 50.9341 76.6578 50.6626V47.4506C76.6578 47.1344 76.643 46.8035 76.609 46.5234C76.3523 46.5234 76.0914 46.5574 75.9768 46.5828C76.0171 46.9668 76.0256 47.2151 76.0256 47.5503V48.6662H73.6622V47.4527C73.6622 47.1366 73.6473 46.8056 73.6134 46.5256C73.3461 46.5256 73.0809 46.5595 72.9663 46.585C73.0151 46.969 73.03 47.2172 73.03 47.5524V50.8535C73.03 51.2078 73.1445 51.2736 73.2867 51.2736C73.4012 51.2736 73.5922 51.2439 73.7364 51.1802C73.6664 51.0954 73.6622 50.9384 73.6622 50.6668V49.0375H76.0256V50.8535L76.0277 50.8493Z" fill="#235479"/>
<path d="M79.9272 48.4222V47.4506C79.9272 47.1345 79.9123 46.8035 79.8784 46.5235C79.6111 46.5235 79.3459 46.5574 79.2271 46.5829C79.2822 46.9669 79.2971 47.2151 79.2971 47.5503V50.9151C79.2971 51.053 79.3225 51.2015 79.3565 51.2906C79.7405 51.2503 79.9887 51.2418 80.3239 51.2418H80.7376C81.7602 51.2418 82.4497 50.6605 82.4497 49.8012C82.4497 48.942 81.7984 48.4244 80.8309 48.4244H79.9272V48.4222ZM80.1181 48.7914H80.7885C81.3995 48.7914 81.8047 49.2199 81.8047 49.8331C81.8047 50.4462 81.3995 50.8641 80.8034 50.8641H80.2221C80.1181 50.8641 80.0205 50.8641 79.925 50.8684V48.7956C79.9802 48.7914 80.0439 48.7914 80.1181 48.7914ZM83.1095 50.8493C83.1095 51.2036 83.2283 51.2694 83.3704 51.2694C83.4935 51.2694 83.6972 51.2397 83.8435 51.176C83.7502 51.0912 83.729 50.9342 83.729 50.6626V47.4506C83.729 47.1345 83.7247 46.7993 83.6887 46.5171C83.4277 46.5171 83.1498 46.551 83.0374 46.5807C83.0925 46.9647 83.1074 47.213 83.1074 47.5482V50.8493H83.1095Z" fill="#235479"/>
<path d="M89.5996 46.5425C89.328 46.9817 89.2092 47.1684 88.9334 47.5397L88.2779 48.4435L87.5523 47.4506C87.3253 47.1345 87.0686 46.7993 86.8225 46.5171C86.517 46.5171 86.2348 46.551 86.1309 46.5807C86.4576 46.9605 86.6549 47.213 86.901 47.5482L87.8196 48.8062L86.3197 50.8599C86.1966 51.0318 86.1521 51.1315 86.1521 51.1866C86.1521 51.2503 86.2009 51.2715 86.2709 51.2715C86.4533 51.2715 86.6209 51.2609 86.7143 51.2312C86.7397 51.1272 86.9222 50.8663 87.0559 50.6732L88.1209 49.2178L89.3259 50.8514C89.5932 51.2163 89.7905 51.2715 89.9433 51.2715C90.096 51.2715 90.2976 51.2418 90.4121 51.1781C90.2594 51.0933 90.13 50.9554 89.9242 50.6647L88.5812 48.8487L89.7269 47.2702C89.9093 47.0284 90.0727 46.7717 90.2106 46.5192C89.9645 46.5192 89.7608 46.5235 89.6038 46.5447L89.5996 46.5425Z" fill="#235479"/>
<path d="M98.8686 50.8493C98.8686 51.2036 98.9874 51.2693 99.1359 51.2693C99.259 51.2693 99.4669 51.2396 99.6154 51.176C99.5221 51.0911 99.5008 50.9341 99.5008 50.6626V47.4506C99.5008 47.1344 99.486 46.8035 99.452 46.5234C99.1953 46.5234 98.9344 46.5574 98.8198 46.5828L96.4713 50.5162V47.4506C96.4713 47.1344 96.4607 46.8035 96.4267 46.5234C96.1551 46.5234 95.8878 46.5574 95.7754 46.5828C95.8306 46.9668 95.839 47.2151 95.839 47.5503V50.8514C95.839 51.2057 95.9578 51.2715 96.0957 51.2715C96.2103 51.2715 96.4076 51.2418 96.5455 51.1781L98.8707 47.3084V50.8514L98.8686 50.8493Z" fill="#235479"/>
<path d="M102.594 48.8658C102.594 47.6904 103.231 46.8927 104.143 46.8927C104.686 46.8927 105.091 47.1791 105.248 47.5886C105.564 47.5886 105.762 47.5249 105.762 47.3361C105.762 47.0243 105.189 46.5066 104.168 46.5066C102.787 46.5066 101.913 47.508 101.913 48.9634C101.913 50.336 102.747 51.2737 104.105 51.2737C104.849 51.2737 105.492 50.9576 105.793 50.5227L105.694 50.459C105.645 50.4336 105.594 50.4103 105.552 50.4103C105.344 50.4103 105.161 50.894 104.149 50.894C103.216 50.894 102.594 50.0644 102.594 48.8658Z" fill="#235479"/>
<path d="M110.618 50.845C110.908 51.2056 111.116 51.2735 111.303 51.2735C111.43 51.2735 111.634 51.2544 111.738 51.1802C111.585 51.0911 111.437 50.9574 111.157 50.6519L109.423 48.7765L110.707 47.4187C110.989 47.1132 111.235 46.7928 111.437 46.5149C111.176 46.5149 110.953 46.5297 110.815 46.5488C110.446 46.988 110.268 47.2044 109.981 47.512L108.821 48.7319V47.2808C108.821 47.0347 108.791 46.7674 108.736 46.5149C108.475 46.5149 108.242 46.5488 108.119 46.5785C108.174 46.9625 108.189 47.2002 108.189 47.5354V50.8471C108.189 51.2014 108.307 51.2672 108.45 51.2672C108.592 51.2672 108.736 51.2523 108.878 51.1823C108.829 51.1038 108.819 50.9298 108.819 50.6583V48.8974L110.616 50.8429L110.618 50.845Z" fill="#235479"/>
<path d="M115.332 50.0792C115.075 50.5821 114.551 50.913 113.876 50.913C113.876 51.1252 114.004 51.2737 114.203 51.2737C114.958 51.2737 115.546 50.8303 115.93 50.0092L117.214 47.4485C117.366 47.1282 117.5 46.8121 117.604 46.5299C117.392 46.5299 117.194 46.5341 117.046 46.5596C116.919 46.9287 116.793 47.2258 116.626 47.5461L115.733 49.2837L115.673 49.1606L114.755 47.2852C114.632 47.0391 114.464 46.7675 114.275 46.5193C114.008 46.5193 113.791 46.5532 113.688 46.5893C113.929 46.9648 114.067 47.2003 114.25 47.5461L115.168 49.3473C115.283 49.5934 115.391 49.7016 115.504 49.7377L115.332 50.0792Z" fill="#235479"/>
<path d="M120.271 48.8658C120.271 47.6904 120.907 46.8927 121.82 46.8927C122.363 46.8927 122.768 47.1791 122.925 47.5886C123.241 47.5886 123.438 47.5249 123.438 47.3361C123.438 47.0243 122.866 46.5066 121.845 46.5066C120.464 46.5066 119.59 47.508 119.59 48.9634C119.59 50.336 120.424 51.2737 121.781 51.2737C122.526 51.2737 123.169 50.9576 123.474 50.5227L123.37 50.459C123.326 50.4336 123.271 50.4103 123.233 50.4103C123.02 50.4103 122.842 50.894 121.826 50.894C120.892 50.894 120.271 50.0644 120.271 48.8658Z" fill="#235479"/>
<path d="M126.277 48.8658C126.277 47.6904 126.913 46.8927 127.826 46.8927C128.369 46.8927 128.774 47.1791 128.935 47.5886C129.251 47.5886 129.444 47.5249 129.444 47.3361C129.444 47.0243 128.872 46.5066 127.855 46.5066C126.468 46.5066 125.6 47.508 125.6 48.9634C125.6 50.336 126.43 51.2737 127.787 51.2737C128.532 51.2737 129.179 50.9576 129.48 50.5227L129.376 50.459C129.332 50.4336 129.277 50.4103 129.239 50.4103C129.031 50.4103 128.848 50.894 127.836 50.894C126.903 50.894 126.277 50.0644 126.277 48.8658Z" fill="#235479"/>
<path d="M135.024 46.9159C135.374 46.9159 135.433 46.8417 135.433 46.7483C135.433 46.6741 135.414 46.5553 135.344 46.4619C135.266 46.5319 135.098 46.5404 134.831 46.5404H132.453C132.136 46.5404 131.801 46.5553 131.519 46.5892C131.519 46.7271 131.553 46.8756 131.589 46.9647C131.965 46.9244 132.221 46.9159 132.556 46.9159H133.144C133.163 47.1387 133.163 47.3211 133.163 47.5481V50.8493C133.163 51.2036 133.291 51.2693 133.435 51.2693C133.562 51.2693 133.762 51.2396 133.908 51.176C133.815 51.0911 133.793 50.9341 133.793 50.6626V47.4506C133.793 47.2681 133.789 47.0963 133.783 46.918H135.022L135.024 46.9159Z" fill="#235479"/>
<path d="M140.833 47.6966C140.833 47.0113 140.3 46.5425 139.511 46.5425H138.302C138.03 46.5425 137.763 46.5764 137.65 46.6019C137.706 46.9859 137.714 47.2341 137.714 47.5693V50.915C137.714 51.0529 137.744 51.2014 137.778 51.2905C138.157 51.2502 138.41 51.2417 138.745 51.2417H139.541C140.434 51.2417 141.045 50.7177 141.045 49.9497C141.045 49.3726 140.691 48.9271 140.133 48.7659C140.561 48.5728 140.833 48.1973 140.833 47.7008V47.6966ZM138.344 50.6625V48.9801H139.416C139.978 48.9801 140.368 49.3854 140.368 49.937C140.368 50.4886 139.993 50.8641 139.435 50.8641H138.639C138.539 50.8641 138.437 50.8641 138.342 50.8683C138.338 50.8089 138.342 50.7453 138.342 50.6604L138.344 50.6625ZM139.312 48.6089H138.344V47.4696C138.344 47.2871 138.34 47.1005 138.334 46.9159H139.29C139.8 46.9159 140.15 47.2659 140.15 47.7687C140.15 48.2715 139.814 48.6068 139.312 48.6068V48.6089Z" fill="#235479"/>
<path d="M16.1577 0H14.8551L0 38.2558H1.84787L2.75377 35.92H22.2275L23.1037 38.2558H30.9768L16.1577 0ZM3.33932 34.2991L12.6084 10.211L21.6356 34.2991H3.34144H3.33932Z" fill="url(#paint0_linear_2041_899)"/>
<path d="M83.8032 32.4681C81.2828 29.8523 77.0525 28.1508 71.11 27.3594V27.2024C75.3679 25.8892 78.4739 23.9968 80.4321 21.5273C81.4122 20.2926 82.1484 18.9772 82.6385 17.5855C83.1286 16.1937 83.3747 14.7214 83.3747 13.1726C83.3747 10.648 82.7297 8.43521 81.4398 6.53006C80.1542 4.62278 78.2342 3.13558 75.6862 2.07268C74.4111 1.54017 72.996 1.1392 71.4388 0.874004C69.8816 0.606688 68.1844 0.475151 66.345 0.475151C65.3967 0.475151 63.6549 0.500609 61.1175 0.553648C59.8488 0.579106 58.6353 0.600321 57.4748 0.613051C56.3143 0.62578 55.209 0.632147 54.1588 0.632147C49.8224 0.632147 46.5382 0.553648 44.3042 0.394531V2.01328C46.2475 2.09177 47.6626 2.30393 48.5431 2.6455C49.4214 2.98707 50.026 3.61717 50.3549 4.5358C50.6837 5.45655 50.8492 6.92891 50.8492 8.95287V38.2557H58.3404V28.5857H65.1209C70.115 28.5857 73.7619 29.6889 76.0617 31.8974C77.2116 33.0006 78.075 34.3584 78.65 35.9687C78.9046 36.6815 79.104 37.4453 79.244 38.2578H87.1298C86.557 36.1045 85.4496 34.176 83.8054 32.4724L83.8032 32.4681ZM63.7758 27.2024H58.3361V8.95287C58.3361 7.03498 58.4953 5.58809 58.8092 4.6143C59.1254 3.64263 59.7024 2.96797 60.5404 2.58609C60.9626 2.39515 61.4866 2.25301 62.1189 2.15754C62.749 2.06207 63.4851 2.0154 64.3274 2.0154C68.2947 2.0154 71.1736 3.00828 72.9642 4.99193C73.8574 5.9827 74.5278 7.23441 74.9733 8.74071C75.4189 10.2491 75.6437 12.0143 75.6437 14.0382C75.6437 18.0331 74.7633 21.226 73.0024 23.617C71.2394 26.008 68.1632 27.2046 63.7737 27.2046L63.7758 27.2024Z" fill="url(#paint1_linear_2041_899)"/>
<path d="M114.634 2.01328C112.688 2.09177 111.277 2.30393 110.399 2.6455C109.517 2.98707 108.912 3.61717 108.583 4.5358C108.254 5.45655 108.089 6.92891 108.089 8.95287V38.2557H100.598V8.95287C100.598 6.92891 100.434 5.45655 100.11 4.5358C99.7808 3.61717 99.1761 2.98707 98.2935 2.6455C97.411 2.30393 95.998 2.09389 94.0547 2.01328V0.394531C96.2887 0.551526 99.732 0.632147 104.385 0.632147C106.553 0.632147 108.492 0.61305 110.2 0.572741C111.908 0.532431 113.386 0.473029 114.636 0.394531V2.01328H114.634Z" fill="url(#paint2_linear_2041_899)"/>
<path d="M150 0.394531V2.01328C148.057 2.09177 146.642 2.30393 145.761 2.6455C144.879 2.98707 144.276 3.61717 143.95 4.5358C143.621 5.45655 143.455 6.92891 143.455 8.95287V38.2557H135.964V10.805L116.556 38.2557H114.386L135.924 7.69054C135.871 6.08877 135.661 4.90495 135.291 4.14119C134.922 3.38168 134.305 2.85765 133.442 2.567C132.574 2.27635 131.233 2.09389 129.419 2.01328V0.394531C131.944 0.551526 135.359 0.632147 139.67 0.632147C141.983 0.632147 144 0.61305 145.723 0.572741C147.444 0.532431 148.872 0.473029 150 0.394531Z" fill="url(#paint3_linear_2041_899)"/>
<defs>
<linearGradient id="paint0_linear_2041_899" x1="-15.2327" y1="7.51241" x2="101.366" y2="65.6111" gradientUnits="userSpaceOnUse">
<stop stop-color="#2D3988"/>
<stop offset="1" stop-color="#29ABE3"/>
</linearGradient>
<linearGradient id="paint1_linear_2041_899" x1="-13.1495" y1="-17.9357" x2="158.533" y2="67.6116" gradientUnits="userSpaceOnUse">
<stop stop-color="#2D3988"/>
<stop offset="1" stop-color="#29ABE3"/>
</linearGradient>
<linearGradient id="paint2_linear_2041_899" x1="55.4361" y1="42.0639" x2="126.786" y2="6.51095" gradientUnits="userSpaceOnUse">
<stop stop-color="#2D3988"/>
<stop offset="1" stop-color="#29ABE3"/>
</linearGradient>
<linearGradient id="paint3_linear_2041_899" x1="48.7938" y1="62.9972" x2="166.937" y2="4.12846" gradientUnits="userSpaceOnUse">
<stop stop-color="#2D3988"/>
<stop offset="1" stop-color="#29ABE3"/>
</linearGradient>
</defs>
</svg>
