<svg width="36" height="36" viewBox="0 0 36 36" fill="none" xmlns="http://www.w3.org/2000/svg">
<rect width="36" height="36" rx="10" fill="#4D7298"/>
<path d="M21 18C21 19.6568 19.6568 21 18 21C16.3431 21 15 19.6568 15 18C15 16.3431 16.3431 15 18 15C19.6568 15 21 16.3431 21 18ZM21 18V19.125C21 20.1605 21.8395 21 22.875 21C23.9105 21 24.75 20.1605 24.75 19.125V18C24.75 14.2721 21.728 11.25 18 11.25C14.2721 11.25 11.25 14.2721 11.25 18C11.25 21.728 14.2721 24.75 18 24.75H21" stroke="white" stroke-width="1.8" stroke-linecap="round" stroke-linejoin="round"/>
</svg>
