<svg width="1920" height="100" viewBox="0 0 1920 100" fill="none" xmlns="http://www.w3.org/2000/svg">
<g clip-path="url(#clip0_170_679)">
<path d="M1921 -33V81.48C1823.98 79.8939 1726.95 78.3078 1615.51 83.7696C1504.07 89.2313 1378.2 101.741 1255.32 99.7968C1132.44 97.8526 1012.53 81.4545 924.481 77.664C836.435 73.8734 780.252 82.6903 679.02 81.48C577.788 80.2696 431.507 69.032 310.828 67.3608C190.15 65.6896 95.0752 73.5848 0 81.48V-33H1921Z" fill="#0297DF" fill-opacity="0.05"/>
<path d="M1921 -33V30.0775C1826.5 39.8786 1732.01 49.6796 1626.18 48.9629C1520.35 48.2463 1403.2 37.0118 1302.01 30.0775C1200.82 23.1431 1115.6 20.5088 1004.52 26.3004C893.443 32.0919 756.503 46.3093 629.661 45.1859C502.819 44.0624 386.074 27.5982 282.814 22.5233C179.553 17.4484 89.7766 23.7629 -0.00012207 30.0775V-33H1921Z" fill="#0297DF" fill-opacity="0.05"/>
</g>
<defs>
<clipPath id="clip0_170_679">
<rect width="1920" height="100" fill="white" transform="matrix(-1 0 0 -1 1920 100)"/>
</clipPath>
</defs>
</svg>
