<svg width="1920" height="100" viewBox="0 0 1920 100" fill="none" xmlns="http://www.w3.org/2000/svg">
<g clip-path="url(#clip0_170_676)">
<path d="M1921 133V18.52C1823.98 20.1061 1726.95 21.6922 1615.51 16.2304C1504.07 10.7687 1378.2 -1.74098 1255.32 0.203226C1132.44 2.14743 1012.53 18.5455 924.481 22.336C836.435 26.1266 780.252 17.3097 679.02 18.52C577.788 19.7304 431.507 30.968 310.828 32.6392C190.15 34.3104 95.0752 26.4152 0 18.52V133H1921Z" fill="#0297DF" fill-opacity="0.05"/>
<path d="M1921 133V69.9225C1826.5 60.1214 1732.01 50.3204 1626.18 51.0371C1520.35 51.7537 1403.2 62.9882 1302.01 69.9225C1200.82 76.8569 1115.6 79.4912 1004.52 73.6996C893.443 67.9081 756.503 53.6907 629.661 54.8141C502.819 55.9376 386.074 72.4018 282.814 77.4767C179.553 82.5516 89.7766 76.2371 -0.00012207 69.9225V133H1921Z" fill="#0297DF" fill-opacity="0.05"/>
</g>
<defs>
<clipPath id="clip0_170_676">
<rect width="1920" height="100" fill="white" transform="matrix(-1 0 0 1 1920 0)"/>
</clipPath>
</defs>
</svg>
