<svg width="36" height="36" viewBox="0 0 36 36" fill="none" xmlns="http://www.w3.org/2000/svg">
<rect width="36" height="36" rx="10" fill="#1C9CDD"/>
<g clip-path="url(#clip0_178_161)">
<path fill-rule="evenodd" clip-rule="evenodd" d="M23.833 12.3224C24.6489 11.9789 25.5236 12.6688 25.3795 13.5424L23.6779 23.8599C23.5138 24.8547 22.4212 25.4255 21.5085 24.9298C20.7448 24.5149 19.6117 23.8765 18.5905 23.2092C18.0805 22.876 16.5191 21.8075 16.711 21.0469C16.8751 20.3966 19.5001 17.9532 21.0001 16.5001C21.5893 15.9293 21.3209 15.5995 20.6251 16.1251C18.8989 17.4288 16.1275 19.411 15.211 19.9688C14.4024 20.461 13.9802 20.545 13.4766 20.461C12.557 20.3077 11.7045 20.0704 11.0084 19.7819C10.0676 19.3919 10.1135 18.0991 11.0078 17.7226L23.833 12.3224Z" fill="white"/>
</g>
<defs>
<clipPath id="clip0_178_161">
<rect width="18" height="18" fill="white" transform="translate(9 9)"/>
</clipPath>
</defs>
</svg>
