<svg width="18" height="18" viewBox="0 0 18 18" fill="none" xmlns="http://www.w3.org/2000/svg">
<g clip-path="url(#clip0_174_825)">
<path d="M12.8473 10.6764C12.6335 10.5752 11.6098 10.0689 11.4185 9.99017C11.2273 9.91142 11.0923 9.88891 10.946 10.1027C10.7998 10.3164 10.406 10.7777 10.2823 10.9239C10.1585 11.0702 10.046 11.0814 9.83226 10.9239C9.21833 10.6775 8.65132 10.3274 8.15601 9.88892C7.70765 9.46677 7.32806 8.97711 7.03101 8.43766C6.90726 8.23516 7.03101 8.12266 7.12101 8.01016C7.21101 7.89766 7.32352 7.77391 7.43602 7.65016C7.51828 7.54314 7.58635 7.42592 7.63851 7.30141C7.66642 7.24351 7.68092 7.18006 7.68092 7.11579C7.68092 7.05151 7.66642 6.98806 7.63851 6.93016C7.63851 6.82891 7.16601 5.80516 6.98601 5.38891C6.80602 4.97266 6.64852 5.02891 6.52477 5.02891H6.07476C5.8604 5.03727 5.6581 5.13033 5.51226 5.28766C5.27687 5.51229 5.09041 5.78313 4.96458 6.08319C4.83875 6.38325 4.77625 6.70607 4.78101 7.03141C4.83856 7.83014 5.13225 8.59373 5.62476 9.22516C6.52856 10.5678 7.76504 11.6531 9.21351 12.3752C9.70851 12.5889 10.091 12.7127 10.3948 12.8139C10.8213 12.9428 11.2721 12.9698 11.711 12.8927C12.0025 12.8335 12.2787 12.7151 12.5226 12.5448C12.7664 12.3745 12.9726 12.156 13.1285 11.9027C13.2582 11.5898 13.301 11.2478 13.2523 10.9127C13.196 10.8339 13.061 10.7777 12.8473 10.6764Z" fill="white"/>
<path d="M14.9511 3.0148C14.1731 2.22942 13.2456 1.60779 12.2235 1.18658C11.2014 0.765365 10.1053 0.553099 8.99982 0.562298C7.5354 0.569962 6.09863 0.96171 4.83298 1.69842C3.56734 2.43512 2.51714 3.491 1.78727 4.76059C1.05739 6.03019 0.673395 7.46906 0.673625 8.9335C0.673854 10.3979 1.0583 11.8367 1.78857 13.106L0.663574 17.4373L5.09607 16.3123C6.32146 16.9791 7.69477 17.3273 9.08982 17.3248H8.99982C10.6625 17.3356 12.2907 16.851 13.6768 15.9328C15.063 15.0145 16.1442 13.7043 16.7827 12.169C17.4211 10.6338 17.5879 8.94322 17.2617 7.31284C16.9355 5.68246 16.1311 4.18618 14.9511 3.0148ZM8.99982 15.8848C7.7517 15.8858 6.52677 15.5475 5.45607 14.906L5.20857 14.7598L2.57607 15.446L3.27357 12.881L3.11607 12.6223C2.2176 11.1754 1.88151 9.44896 2.17158 7.77064C2.46165 6.09233 3.35768 4.57887 4.68969 3.51743C6.02169 2.45599 7.69698 1.92042 9.39769 2.01233C11.0984 2.10424 12.7062 2.81724 13.9161 4.01605C14.5647 4.65943 15.0788 5.42546 15.4284 6.2695C15.7779 7.11355 15.9561 8.01873 15.9523 8.9323C15.9493 10.7753 15.2159 12.542 13.9127 13.8452C12.6095 15.1484 10.8428 15.8818 8.99982 15.8848Z" fill="white"/>
</g>
<defs>
<clipPath id="clip0_174_825">
<rect width="18" height="18" fill="white"/>
</clipPath>
</defs>
</svg>
