<svg width="36" height="36" viewBox="0 0 36 36" fill="none" xmlns="http://www.w3.org/2000/svg">
<rect width="36" height="36" rx="10" fill="#67C15E"/>
<g clip-path="url(#clip0_178_156)">
<path d="M21.8473 19.6764C21.6335 19.5752 20.6098 19.0689 20.4185 18.9902C20.2273 18.9114 20.0923 18.8889 19.946 19.1027C19.7998 19.3164 19.406 19.7777 19.2823 19.9239C19.1585 20.0702 19.046 20.0814 18.8323 19.9239C18.2183 19.6775 17.6513 19.3274 17.156 18.8889C16.7077 18.4668 16.3281 17.9771 16.031 17.4377C15.9073 17.2352 16.031 17.1227 16.121 17.0102C16.211 16.8977 16.3235 16.7739 16.436 16.6502C16.5183 16.5431 16.5864 16.4259 16.6385 16.3014C16.6664 16.2435 16.6809 16.1801 16.6809 16.1158C16.6809 16.0515 16.6664 15.9881 16.6385 15.9302C16.6385 15.8289 16.166 14.8052 15.986 14.3889C15.806 13.9727 15.6485 14.0289 15.5248 14.0289H15.0748C14.8604 14.0373 14.6581 14.1303 14.5123 14.2877C14.2769 14.5123 14.0904 14.7831 13.9646 15.0832C13.8387 15.3833 13.7763 15.7061 13.781 16.0314C13.8386 16.8301 14.1322 17.5937 14.6248 18.2252C15.5286 19.5678 16.765 20.6531 18.2135 21.3752C18.7085 21.5889 19.091 21.7127 19.3948 21.8139C19.8213 21.9428 20.2721 21.9698 20.711 21.8927C21.0025 21.8335 21.2787 21.7151 21.5226 21.5448C21.7664 21.3745 21.9726 21.156 22.1285 20.9027C22.2582 20.5898 22.301 20.2478 22.2523 19.9127C22.196 19.8339 22.061 19.7777 21.8473 19.6764Z" fill="white"/>
<path d="M23.9511 12.0148C23.1731 11.2294 22.2456 10.6078 21.2235 10.1866C20.2014 9.76536 19.1053 9.5531 17.9998 9.5623C16.5354 9.56996 15.0986 9.96171 13.833 10.6984C12.5673 11.4351 11.5171 12.491 10.7873 13.7606C10.0574 15.0302 9.6734 16.4691 9.67362 17.9335C9.67385 19.3979 10.0583 20.8367 10.7886 22.106L9.66357 26.4373L14.0961 25.3123C15.3215 25.9791 16.6948 26.3273 18.0898 26.3248H17.9998C19.6625 26.3356 21.2907 25.851 22.6768 24.9328C24.063 24.0145 25.1442 22.7043 25.7827 21.169C26.4211 19.6338 26.5879 17.9432 26.2617 16.3128C25.9355 14.6825 25.1311 13.1862 23.9511 12.0148ZM17.9998 24.8848C16.7517 24.8858 15.5268 24.5475 14.4561 23.906L14.2086 23.7598L11.5761 24.446L12.2736 21.881L12.1161 21.6223C11.2176 20.1754 10.8815 18.449 11.1716 16.7706C11.4616 15.0923 12.3577 13.5789 13.6897 12.5174C15.0217 11.456 16.697 10.9204 18.3977 11.0123C20.0984 11.1042 21.7062 11.8172 22.9161 13.016C23.5647 13.6594 24.0788 14.4255 24.4284 15.2695C24.7779 16.1135 24.9561 17.0187 24.9523 17.9323C24.9493 19.7753 24.2159 21.542 22.9127 22.8452C21.6095 24.1484 19.8428 24.8818 17.9998 24.8848Z" fill="white"/>
</g>
<defs>
<clipPath id="clip0_178_156">
<rect width="18" height="18" fill="white" transform="translate(9 9)"/>
</clipPath>
</defs>
</svg>
