<svg width="18" height="18" viewBox="0 0 18 18" fill="none" xmlns="http://www.w3.org/2000/svg">
<path d="M17.2071 15.793C17.5976 16.1835 17.5976 16.8165 17.2071 17.207C16.8166 17.5975 16.1836 17.5975 15.793 17.207L9.00007 10.414L2.20711 17.207C1.81658 17.5975 1.18357 17.5975 0.793044 17.207C0.402519 16.8165 0.402519 16.1835 0.793044 15.793L7.58601 8.99999L0.793045 2.20702C0.40252 1.81649 0.40252 1.18348 0.793045 0.792954C1.18357 0.402429 1.81658 0.402429 2.20711 0.792954L9.00008 7.58592L15.793 0.792954C16.1836 0.40243 16.8166 0.40243 17.2071 0.792954C17.5976 1.18348 17.5976 1.81649 17.2071 2.20702L10.4141 8.99999L17.2071 15.793Z" fill="white"/>
</svg>
