<svg xmlns="http://www.w3.org/2000/svg"><symbol id="chevron" viewBox="0 0 16 16"><path d="M6.47355 12.1952C6.73389 12.4556 7.15602 12.4556 7.41636 12.1952L10.6746 8.93378C11.1949 8.41298 11.1947 7.56911 10.6742 7.04858L7.41396 3.78838C7.15362 3.52798 6.73149 3.52798 6.47114 3.78838C6.21079 4.04871 6.21079 4.47084 6.47114 4.73118L9.26156 7.52158C9.52196 7.78191 9.52189 8.20404 9.26156 8.46438L6.47355 11.2524C6.2132 11.5128 6.2132 11.9349 6.47355 12.1952Z"></path></symbol><symbol id="close" viewBox="0 0 8 8"><path d="M6.53999 0.53999C6.79383 0.286149 7.20607 0.286149 7.45991 0.53999C7.71375 0.793831 7.71375 1.20607 7.45991 1.45991L4.91987 3.99995L7.45991 6.53999C7.71375 6.79383 7.71375 7.20607 7.45991 7.45991C7.20607 7.71375 6.79383 7.71375 6.53999 7.45991L3.99995 4.91987L1.45991 7.45991C1.20607 7.71375 0.793831 7.71375 0.53999 7.45991C0.286149 7.20607 0.286149 6.79383 0.53999 6.53999L3.08003 3.99995L0.53999 1.45991C0.286149 1.20607 0.286149 0.793831 0.53999 0.53999C0.793831 0.286149 1.20607 0.286149 1.45991 0.53999L3.99995 3.08003L6.53999 0.53999Z"></path></symbol><symbol id="closer" viewBox="0 0 18 18"><path d="M17.2071 15.793C17.5976 16.1835 17.5976 16.8165 17.2071 17.207C16.8166 17.5975 16.1836 17.5975 15.793 17.207L9.00007 10.414L2.20711 17.207C1.81658 17.5975 1.18357 17.5975 0.793044 17.207C0.402519 16.8165 0.402519 16.1835 0.793044 15.793L7.58601 8.99999L0.793045 2.20702C0.40252 1.81649 0.40252 1.18348 0.793045 0.792954C1.18357 0.402429 1.81658 0.402429 2.20711 0.792954L9.00008 7.58592L15.793 0.792954C16.1836 0.40243 16.8166 0.40243 17.2071 0.792954C17.5976 1.18348 17.5976 1.81649 17.2071 2.20702L10.4141 8.99999L17.2071 15.793Z"></path></symbol></svg>